HIERARCHY
ROOT Hips
{
  OFFSET -4.35178 90.3298 111.633
  CHANNELS 6 Xposition Yposition Zposition Zrotation Xrotation Yrotation
  JOINT LeftUpLeg
  {
    OFFSET 0.103456 1.85784 10.5485
    CHANNELS 6 Xposition Yposition Zposition Zrotation Xrotation Yrotation
    JOINT LeftLeg
    {
      OFFSET 43.5 -4.2e-05 0
      CHANNELS 6 Xposition Yposition Zposition Zrotation Xrotation Yrotation
      JOINT LeftFoot
      {
        OFFSET 42.3722 1.9e-05 0
        CHANNELS 6 Xposition Yposition Zposition Zrotation Xrotation Yrotation
        JOINT LeftToe
        {
          OFFSET 17.3 0 0
          CHANNELS 6 Xposition Yposition Zposition Zrotation Xrotation Yrotation
          End Site
          {
            OFFSET 0 0 0
          }
        }
      }
    }
  }
  JOINT RightUpLeg
  {
    OFFSET 0.103456 1.85782 -10.5485
    CHANNELS 6 Xposition Yposition Zposition Zrotation Xrotation Yrotation
    JOINT RightLeg
    {
      OFFSET 43.5 -2.7e-05 0
      CHANNELS 6 Xposition Yposition Zposition Zrotation Xrotation Yrotation
      JOINT RightFoot
      {
        OFFSET 42.3723 0 0
        CHANNELS 6 Xposition Yposition Zposition Zrotation Xrotation Yrotation
        JOINT RightToe
        {
          OFFSET 17.3 0 1.7e-05
          CHANNELS 6 Xposition Yposition Zposition Zrotation Xrotation Yrotation
          End Site
          {
            OFFSET 0 0 0
          }
        }
      }
    }
  }
  JOINT Spine
  {
    OFFSET 6.90197 -2.60373 0
    CHANNELS 6 Xposition Yposition Zposition Zrotation Xrotation Yrotation
    JOINT Spine1
    {
      OFFSET 12.5881 0 0
      CHANNELS 6 Xposition Yposition Zposition Zrotation Xrotation Yrotation
      JOINT Spine2
      {
        OFFSET 12.3432 -1.8e-05 0
        CHANNELS 6 Xposition Yposition Zposition Zrotation Xrotation Yrotation
        JOINT Neck
        {
          OFFSET 25.8329 2.3e-05 0
          CHANNELS 6 Xposition Yposition Zposition Zrotation Xrotation Yrotation
          JOINT Head
          {
            OFFSET 11.7666 0 0
            CHANNELS 6 Xposition Yposition Zposition Zrotation Xrotation Yrotation
            End Site
            {
              OFFSET 0 0 0
            }
          }
        }
        JOINT LeftShoulder
        {
          OFFSET 19.7459 -1.48035 6.0001
          CHANNELS 6 Xposition Yposition Zposition Zrotation Xrotation Yrotation
          JOINT LeftArm
          {
            OFFSET 11.2841 1.8e-05 -2e-05
            CHANNELS 6 Xposition Yposition Zposition Zrotation Xrotation Yrotation
            JOINT LeftForeArm
            {
              OFFSET 33 -1.3e-05 1.9e-05
              CHANNELS 6 Xposition Yposition Zposition Zrotation Xrotation Yrotation
              JOINT LeftHand
              {
                OFFSET 25.2 3.2e-05 1.1e-05
                CHANNELS 6 Xposition Yposition Zposition Zrotation Xrotation Yrotation
                End Site
                {
                  OFFSET 0 0 0
                }
              }
            }
          }
        }
        JOINT RightShoulder
        {
          OFFSET 19.7461 -1.48036 -6.00008
          CHANNELS 6 Xposition Yposition Zposition Zrotation Xrotation Yrotation
          JOINT RightArm
          {
            OFFSET 11.2841 0 0
            CHANNELS 6 Xposition Yposition Zposition Zrotation Xrotation Yrotation
            JOINT RightForeArm
            {
              OFFSET 33.0001 1.6e-05 0
              CHANNELS 6 Xposition Yposition Zposition Zrotation Xrotation Yrotation
              JOINT RightHand
              {
                OFFSET 25.1998 0.000123 0.000432
                CHANNELS 6 Xposition Yposition Zposition Zrotation Xrotation Yrotation
                End Site
                {
                  OFFSET 0 0 0
                }
              }
            }
          }
        }
      }
    }
  }
}
MOTION
Frames:	7
Frame Time:	0.0333333
-51.2524 79.0138 6.70737 -89.937 51.9651 179.939 0.103456 1.85784 10.5485 -8.32888 13.0313 -172.708 43.5 -4.2e-05 1e-05 -67.8787 -8.17306 -8.0452 42.3722 1.9e-05 3.55271e-15 90.4369 4.78282 7.47818 17.3 -7.10543e-15 3e-06 21.4546 -1e-06 0.003093 0.103456 1.85782 -10.5485 -28.6037 -2.11188 172.611 43.5 -2.7e-05 4e-06 -96.8737 20.3719 -1.13209 42.3723 1.77636e-15 1e-05 77.5659 -8.72877 -1.40724 17.3 -6e-06 1.7e-05 21.4546 -1.9e-05 -0.003116 6.90197 -2.60373 -3e-06 12.4555 -0.7674 -0.28862 12.5881 1e-05 8e-06 14.9141 -1.41029 -0.367616 12.3432 -1.8e-05 -5e-06 14.6178 -1.20659 -0.265705 25.8329 2.3e-05 7e-06 5.33191 4.02492 -5.44117 11.7666 -8e-06 -6e-06 -42.5104 -7.65982 14.47 19.7459 -1.48035 6.0001 179.793 7.54787 -96.1975 11.2841 1.8e-05 -2e-05 -1.87595 -31.511 74.35 33 -1.3e-05 1.9e-05 -82.2098 -8.21088 -6.12757 25.2 3.2e-05 1.1e-05 -37.8527 28.5819 0.410446 19.7461 -1.48036 -6.00008 -169.259 -4.15171 75.8587 11.2841 -1.42109e-14 -1e-06 -11.7637 -6.37094 -38.077 33.0001 1.6e-05 -1e-06 -89.9305 -0.060872 21.1222 25.1998 0.000123 0.000432 -4.11938 -22.3583 15.1617 
-44.9509 79.8556 12.868 -86.8475 56.0942 177.91 0.103456 1.85784 10.5485 4.05703 14.1244 -174.618 43.5 -4.2e-05 1e-05 -59.9376 -10.7858 -11.6255 42.3722 1.9e-05 1.77636e-15 84.4762 6.80867 5.71957 17.3 0 3e-06 21.4546 -1e-06 0.003093 0.103456 1.85782 -10.5485 -37.8791 -6.25385 178.071 43.5 -2.7e-05 4e-06 -91.1287 18.088 -5.58389 42.3723 -1.77636e-15 1e-05 80.7361 1.95302 -5.51997 17.3 -6e-06 1.7e-05 21.4546 -1.9e-05 -0.003116 6.90197 -2.60373 -3e-06 12.4343 -0.567072 -0.434683 12.5881 1e-05 8e-06 14.8662 -1.04682 -0.703929 12.3432 -1.8e-05 -5e-06 14.5651 -0.865387 -0.623918 25.8329 2.3e-05 7e-06 4.92793 4.61328 -5.67808 11.7666 -8e-06 -6e-06 -41.1857 -6.37854 13.8369 19.7459 -1.48035 6.0001 -179.899 6.79991 -96.9591 11.2841 1.8e-05 -2e-05 -3.85947 -33.0833 72.8056 33 -1.3e-05 1.9e-05 -97.7918 -8.82927 -4.6696 25.2 3.2e-05 1.1e-05 -40.1769 31.0744 -2.0417 19.7461 -1.48036 -6.00008 -168.053 -1.98866 75.3442 11.2841 0 -1e-06 -9.1805 -11.7229 -36.9012 33.0001 1.6e-05 -1e-06 -93.4151 1.43188 21.7752 25.1998 0.000123 0.000432 -4.74307 -23.4127 15.5544 
-38.1983 81.0834 19.4995 -83.9041 59.5596 175.848 0.103456 1.85784 10.5485 15.4227 14.6162 -177.849 43.5 -4.2e-05 1e-05 -51.5192 -15.1267 -13.2213 42.3722 1.9e-05 3.55271e-15 73.1796 13.4426 2.23649 17.3 0 3e-06 21.4546 -1e-06 0.003093 0.103456 1.85782 -10.5485 -42.1927 -10.1319 -175.813 43.5 -2.7e-05 4e-06 -77.57 15.9869 -9.82893 42.3723 0 1e-05 80.8127 6.82608 -5.29342 17.3 -6e-06 1.7e-05 21.4546 -1.9e-05 -0.003116 6.90197 -2.60373 -3e-06 12.3139 -0.464375 -0.471271 12.5881 1e-05 8e-06 14.6232 -0.853427 -0.80124 12.3432 -1.8e-05 -5e-06 14.3193 -0.682102 -0.732792 25.8329 2.3e-05 7e-06 4.17587 5.24565 -6.14295 11.7666 -8e-06 -6e-06 -40.1866 -5.06265 13.4999 19.7459 -1.48035 6.0001 -179.238 6.12804 -96.973 11.2841 1.8e-05 -2e-05 -3.09007 -34.1486 71.8402 33 -1.3e-05 1.9e-05 -109.243 -7.88012 -0.524748 25.2 3.2e-05 1.1e-05 -41.2124 34.2221 -4.03789 19.7461 -1.48036 -6.00008 -166.894 -0.398558 74.6806 11.2841 -1.42109e-14 -1e-06 -7.69607 -17.4334 -36.0431 33.0001 1.6e-05 -1e-06 -96.5844 4.82644 22.6629 25.1998 0.000123 0.000432 -4.36752 -24.3539 16.413 
-31.0019 82.3784 26.8111 -81.5457 62.1441 173.935 0.103456 1.85784 10.5485 24.8245 15.8143 179.449 43.5 -4.2e-05 1e-05 -43.7743 -20.4496 -12.8242 42.3722 1.9e-05 -3.55271e-15 59.7428 29.1796 -3.07729 17.3 -7.10543e-15 3e-06 21.4546 -1e-06 0.003093 0.103456 1.85782 -10.5485 -40.6729 -12.5727 -171.145 43.5 -2.7e-05 4e-06 -57.633 11.7206 -11.1775 42.3723 0 1e-05 79.5516 8.32576 -0.138209 17.3 -6e-06 1.7e-05 21.4546 -1.9e-05 -0.003116 6.90197 -2.60373 -3e-06 11.8832 -0.471367 -0.413815 12.5881 1e-05 8e-06 13.7622 -0.861757 -0.689247 12.3432 -1.8e-05 -5e-06 13.4582 -0.696551 -0.619736 25.8329 2.3e-05 7e-06 4.08945 5.96182 -6.5294 11.7666 -8e-06 -6e-06 -39.3019 -3.8571 13.579 19.7459 -1.48035 6.0001 -179.449 4.87104 -96.7954 11.2841 1.8e-05 -2e-05 -8.32564 -31.1014 68.5518 33 -1.3e-05 1.9e-05 -110.121 -9.32489 -0.704951 25.2 3.2e-05 1.1e-05 -43.4914 38.4577 -5.48214 19.7461 -1.48036 -6.00008 -166.052 0.918928 73.3545 11.2841 -1.42109e-14 -1e-06 -7.24663 -23.1283 -35.9941 33.0001 1.6e-05 -1e-06 -98.2106 8.32231 23.1971 25.1998 0.000123 0.000432 -3.561 -24.3299 16.6249 
-23.3289 83.1493 34.2493 -80.066 63.6137 173.148 0.103456 1.85784 10.5485 31.5543 17.9695 177.154 43.5 -4.2e-05 1e-05 -38.7061 -25.4274 -10.1656 42.3722 1.9e-05 0 56.1759 48.9613 -15.5625 17.3 -3.55271e-15 3e-06 21.4546 -1e-06 0.003093 0.103456 1.85782 -10.5485 -34.8785 -12.6364 -169.562 43.5 -2.7e-05 4e-06 -33.3872 7.12633 -6.99746 42.3723 0 1e-05 75.9676 6.23125 5.5978 17.3 -6e-06 1.7e-05 21.4546 -1.9e-05 -0.003116 6.90197 -2.60373 -3e-06 11.1991 -0.642688 -0.393132 12.5881 1e-05 8e-06 12.3975 -1.20985 -0.618453 12.3432 -1.8e-05 -5e-06 12.0991 -1.06027 -0.526639 25.8329 2.3e-05 7e-06 4.79575 6.6879 -6.91214 11.7666 -8e-06 -6e-06 -38.0792 -2.65979 14.0028 19.7459 -1.48035 6.0001 179.647 3.59824 -96.7105 11.2841 1.8e-05 -2e-05 -15.8083 -25.3543 65.7187 33 -1.3e-05 1.9e-05 -102.894 -10.538 -3.9263 25.2 3.2e-05 1.1e-05 -43.161 35.2103 -3.28695 19.7461 -1.48036 -6.00008 -165.153 1.65023 71.4815 11.2841 0 -1e-06 -6.85575 -26.8385 -37.2043 33.0001 1.6e-05 -1e-06 -98.0987 11.3562 22.9855 25.1998 0.000123 0.000432 -2.37082 -22.3614 15.2411 
-15.4926 82.673 41.8943 -78.2158 63.676 172.796 0.103456 1.85784 10.5485 34.8338 19.0339 175.85 43.5 -4.2e-05 1e-05 -38.8245 -28.141 -6.92936 42.3722 1.9e-05 -2.22045e-15 61.755 60.9996 -29.104 17.3 0 3e-06 21.4546 -1e-06 0.003093 0.103456 1.85782 -10.5485 -26.4735 -11.1935 -169.438 43.5 -2.7e-05 4e-06 -10.2488 7.25834 -1.63236 42.3723 0 1e-05 70.8643 3.71923 4.77964 17.3 -6e-06 1.7e-05 21.4546 -1.9e-05 -0.003116 6.90197 -2.60373 -3e-06 10.4241 -0.926769 -0.556382 12.5881 1e-05 8e-06 10.8519 -1.82067 -0.897132 12.3432 -1.8e-05 -5e-06 10.5647 -1.71061 -0.766375 25.8329 2.3e-05 7e-06 6.06473 7.65437 -7.50457 11.7666 -8e-06 -6e-06 -36.1283 -1.39162 15.0051 19.7459 -1.48035 6.0001 178.443 2.65758 -97.069 11.2841 1.8e-05 -2e-05 -20.8491 -20.4128 65.2368 33 -1.3e-05 1.9e-05 -91.6651 -9.935 -5.80976 25.2 3.2e-05 1.1e-05 -39.2995 29.4531 0.443305 19.7461 -1.48036 -6.00008 -164.322 2.23877 69.362 11.2841 1.42109e-14 -1e-06 -6.60766 -29.1677 -39.2807 33.0001 1.6e-05 -1e-06 -96.2568 14.1049 21.9112 25.1998 0.000123 0.000432 -0.520508 -19.3664 13.0209 
-8.20292 81.2712 49.5141 -75.7681 62.2942 171.938 0.103456 1.85784 10.5485 33.8216 16.4975 177.381 43.5 -4.2e-05 1e-05 -47.6548 -26.6177 -6.3938 42.3722 1.9e-05 3.44169e-15 72.2459 62.6143 -36.806 17.3 1.77636e-15 3e-06 21.4546 -1e-06 0.003093 0.103456 1.85782 -10.5485 -24.0561 -9.61293 -169.875 43.5 -2.7e-05 4e-06 -6.73454 7.96004 -0.641375 42.3723 0 1e-05 70.0554 2.19122 2.75674 17.3 -6e-06 1.7e-05 21.4546 -1.9e-05 -0.003116 6.90197 -2.60373 -3e-06 9.69842 -1.17907 -0.797761 12.5881 1e-05 8e-06 9.40153 -2.37838 -1.34459 12.3432 -1.8e-05 -5e-06 9.12539 -2.31692 -1.17834 25.8329 2.3e-05 7e-06 7.37954 8.66906 -8.25309 11.7666 -8e-06 -6e-06 -32.8496 -0.466973 16.715 19.7459 -1.48035 6.0001 177.385 2.75791 -96.9606 11.2841 1.8e-05 -2e-05 -23.8763 -17.3701 65.3824 33 -1.3e-05 1.9e-05 -77.2239 -6.11731 -4.42502 25.2 3.2e-05 1.1e-05 -39.9962 31.7981 1.155 19.7461 -1.48036 -6.00008 -163.522 2.55286 67.3505 11.2841 -1.42109e-14 -1e-06 -6.57299 -29.8372 -42.4687 33.0001 1.6e-05 -1e-06 -91.8624 16.1665 19.7587 25.1998 0.000123 0.000432 1.17859 -16.5049 11.0843 
